<?xml version="1.0" encoding="UTF-8"?>
<svg version="1.1" xmlns="http://www.w3.org/2000/svg" width="1254" height="1254">
<path d="M0 0 C413.82 0 827.64 0 1254 0 C1254 413.82 1254 827.64 1254 1254 C840.18 1254 426.36 1254 0 1254 C0 840.18 0 426.36 0 0 Z " fill="#15564F" transform="translate(0,0)"/>
<path d="M0 0 C20.5042557 17.59229612 33.88255289 39.7358865 37.453125 66.71728516 C39.65743045 99.88153992 27.41793603 125.96523754 10.453125 153.71728516 C9.67245681 155.01555039 8.89351995 156.31486011 8.1171875 157.61572266 C6.74191032 159.91838981 5.36225781 162.21781142 3.9765625 164.51416016 C0.52288254 170.25195872 -2.88412212 176.01758911 -6.296875 181.77978516 C-6.64293793 182.36405273 -6.98900085 182.94832031 -7.34555054 183.55029297 C-14.08761115 194.93439275 -20.81897161 206.32481415 -27.546875 217.71728516 C-29.6508138 221.27991981 -31.75497255 224.84242436 -33.859375 228.40478516 C-34.38885742 229.30124756 -34.91833984 230.19770996 -35.46386719 231.12133789 C-38.44732443 236.17071029 -41.43581539 241.21704901 -44.4296875 246.26025391 C-51.48965938 258.15460439 -58.51757359 270.06610576 -65.47509766 282.02075195 C-69.76895218 289.39513935 -74.10085365 296.74623159 -78.44873047 304.08886719 C-82.94153431 311.68099211 -87.40258163 319.29149889 -91.859375 326.90478516 C-97.39422222 336.35887488 -102.95460238 345.79700994 -108.546875 355.21728516 C-114.05275272 364.49344796 -119.53198089 373.78462823 -124.984375 383.09228516 C-125.33610779 383.69262573 -125.68784058 384.29296631 -126.05023193 384.91149902 C-129.27221298 390.41134488 -132.49226907 395.91231443 -135.70849609 401.41552734 C-139.61164814 408.09402782 -143.51935839 414.76976657 -147.44233704 421.43664551 C-149.16742718 424.36848053 -150.88954544 427.30196421 -152.60449219 430.23974609 C-154.57452266 433.61363368 -156.56012056 436.97821637 -158.546875 440.34228516 C-159.40853271 441.82486816 -159.40853271 441.82486816 -160.28759766 443.33740234 C-174.5735874 467.38719803 -195.83879167 485.39438946 -223.06860352 492.56933594 C-226.2161021 493.35191771 -229.37039309 494.06226782 -232.546875 494.71728516 C-233.45179688 494.91193359 -234.35671875 495.10658203 -235.2890625 495.30712891 C-264.14649888 498.94025939 -290.77836242 492.54598782 -313.796875 474.77978516 C-333.32187141 458.50369768 -347.65206575 434.72813309 -351.26953125 409.26806641 C-352.29856742 396.09350473 -352.23966036 382.68598704 -349.546875 369.71728516 C-349.30195313 368.53392578 -349.05703125 367.35056641 -348.8046875 366.13134766 C-345.25005866 351.12640997 -338.03452849 338.08734728 -329.97558594 325.05371094 C-326.98483639 320.16282352 -324.08809018 315.21532904 -321.171875 310.27978516 C-319.78312954 307.93308892 -318.39354229 305.5868916 -317.00390625 303.24072266 C-316.64582382 302.63601639 -316.28774139 302.03131012 -315.91880798 301.40827942 C-311.57252409 294.06970856 -307.21539216 286.73758091 -302.859375 279.40478516 C-297.36857584 270.16161944 -291.88590916 260.91380968 -286.421875 251.65478516 C-281.93747004 244.05806416 -277.42331846 236.48037061 -272.87402344 228.92236328 C-263.6051904 213.52205055 -254.38544919 198.09478312 -245.25537109 182.61181641 C-240.44842069 174.46788901 -235.62211399 166.33539623 -230.79812622 158.20155334 C-228.55839476 154.42468145 -226.32096742 150.64645355 -224.08476257 146.86749268 C-214.61580042 130.86834242 -205.06419238 114.92404753 -195.39453125 99.04541016 C-191.61430174 92.83615844 -187.87212818 86.60481782 -184.140625 80.36621094 C-181.27379879 75.57942692 -178.38866766 70.80411579 -175.48828125 66.03759766 C-174.95461693 65.16021439 -174.95461693 65.16021439 -174.41017151 64.2651062 C-172.57756316 61.2528163 -170.74287195 58.24181922 -168.90551758 55.23242188 C-165.53446746 49.70202728 -162.20105046 44.15668397 -158.9921875 38.52978516 C-152.75764087 27.61381126 -146.37766587 17.71363383 -137.546875 8.71728516 C-136.72832031 7.88197266 -135.90976562 7.04666016 -135.06640625 6.18603516 C-99.36642484 -27.82504011 -38.39808885 -31.84083946 0 0 Z " fill="#FDFDFD" transform="translate(721.546875,402.28271484375)"/>
<path d="M0 0 C4.60882412 3.71134991 8.79679149 7.84317172 13 12 C13.67675781 12.60457031 14.35351562 13.20914062 15.05078125 13.83203125 C31.44534524 28.71904913 40.19373467 53.84931827 41.48046875 75.38671875 C42.62835004 109.40941566 28.23702037 135.82338822 11.12109375 164.1484375 C6.89779981 171.14865045 2.75257074 178.19302874 -1.375 185.25 C-1.72768951 185.85261658 -2.08037903 186.45523315 -2.4437561 187.07611084 C-4.96435828 191.38299081 -7.48252165 195.69129353 -10 200 C-12.87328311 204.91767228 -15.74779355 209.83462196 -18.625 214.75 C-19.15450256 215.65481613 -19.15450256 215.65481613 -19.69470215 216.57791138 C-24.6152695 224.98211984 -29.59610351 233.34750166 -34.625 241.6875 C-40.30278274 251.10536793 -45.83488977 260.59909136 -51.30957031 270.13623047 C-56.42330777 279.03285986 -61.6382094 287.86637131 -66.88085938 296.6875 C-71.76067525 304.90067803 -76.60979163 313.1311106 -81.4375 321.375 C-81.78971619 321.97639801 -82.14193237 322.57779602 -82.50482178 323.19741821 C-84.28989708 326.24564351 -86.07450529 329.29414192 -87.85888672 332.34277344 C-91.04956396 337.7935516 -94.24447414 343.24184808 -97.4390564 348.69033813 C-98.49966577 350.49942991 -99.56004958 352.3086537 -100.62036133 354.11791992 C-103.82428941 359.58473484 -107.02922604 365.05094748 -110.23880005 370.51445007 C-117.40681012 382.71628871 -124.5567821 394.92745923 -131.625 407.1875 C-132.23182617 408.23993896 -132.83865234 409.29237793 -133.46386719 410.37670898 C-136.30207653 415.30350471 -139.13476582 420.23336973 -141.95733643 425.16914368 C-161.29171851 458.97290803 -161.29171851 458.97290803 -172 470 C-172.68449219 470.75796875 -173.36898437 471.5159375 -174.07421875 472.296875 C-190.83395934 490.26480391 -216.38848064 499.38787574 -240.48046875 500.23828125 C-252.08693978 500.4607663 -261.96432712 499.85995439 -273 496 C-274.1653125 495.63777344 -275.330625 495.27554688 -276.53125 494.90234375 C-301.78685731 486.66074623 -321.62678147 468.34012645 -334 445 C-335.93439328 440.73785596 -337.5333638 436.44198422 -339 432 C-339.29390625 431.20207031 -339.5878125 430.40414063 -339.890625 429.58203125 C-347.04700819 409.76165623 -346.55889082 384.92158998 -340 365 C-339.69376709 364.03054443 -339.69376709 364.03054443 -339.38134766 363.04150391 C-334.82668268 349.16309043 -326.68116597 336.91025538 -319.13183594 324.51416016 C-315.76503379 318.9779166 -312.48173503 313.39210024 -309.1875 307.8125 C-307.8624666 305.57523207 -306.53693611 303.33825849 -305.2109375 301.1015625 C-304.87477417 300.53444046 -304.53861084 299.96731842 -304.19226074 299.38301086 C-301.53917764 294.9077094 -298.8832738 290.43408589 -296.2265625 285.9609375 C-295.82246658 285.2805542 -295.41837067 284.6001709 -295.00202942 283.89916992 C-293.36292076 281.13947462 -291.72376552 278.37980701 -290.08444214 275.62023926 C-285.12713616 267.27498391 -280.18030143 258.92374881 -275.25 250.5625 C-270.78867284 242.99730453 -266.27895547 235.46237954 -261.75 227.9375 C-255.90128082 218.21768066 -250.14364174 208.44776892 -244.42111206 198.65344238 C-239.44030168 190.13086973 -234.40688082 181.64290936 -229.3125 173.1875 C-223.91231582 164.22284015 -218.59983406 155.21172332 -213.34130859 146.16333008 C-206.93112101 135.14115375 -200.41672057 124.18125805 -193.90771484 113.21728516 C-191.55498908 109.24950679 -189.21049515 105.27691235 -186.86694336 101.30371094 C-181.93022455 92.9344706 -176.96289894 84.5849364 -171.95141602 76.26025391 C-168.70378608 70.8586214 -165.48052022 65.44299095 -162.26953125 60.01953125 C-161.85223755 59.31507874 -161.43494385 58.61062622 -161.00500488 57.88482666 C-158.92154729 54.36738252 -156.83991394 50.84888081 -154.76123047 47.32861328 C-136.98449843 17.2719336 -117.67664543 -4.7784435 -83.36328125 -15.140625 C-54.97039737 -22.39548499 -24.05054653 -17.17114652 0 0 Z " fill="#FDFDFD" transform="translate(1000,399)"/>
<path d="M0 0 C7.42006721 6.72465766 13.76980918 14.1878485 20 22 C22.22009856 24.71582115 24.45400105 27.42019544 26.6875 30.125 C27.89600901 31.59100103 29.10434014 33.05714871 30.3125 34.5234375 C30.9209375 35.26174805 31.529375 36.00005859 32.15625 36.76074219 C33.98104514 38.97697909 35.80338986 41.19520729 37.625 43.4140625 C43.41891063 50.46793133 49.23935867 57.49449029 55.15112305 64.44995117 C59.50320072 69.5765994 63.79464742 74.75207043 68 80 C68.598125 80.65871094 69.19625 81.31742187 69.8125 81.99609375 C71 84 71 84 70.7409668 86.31933594 C69.94678394 89.19252465 68.85573786 91.33573175 67.33203125 93.89453125 C66.77604248 94.83707764 66.22005371 95.77962402 65.6472168 96.75073242 C65.04176025 97.76111572 64.43630371 98.77149902 63.8125 99.8125 C62.5232429 101.9920724 61.23418573 104.17176308 59.9453125 106.3515625 C59.28563477 107.46176758 58.62595703 108.57197266 57.94628906 109.71582031 C54.99846838 114.68999039 52.09421012 119.68923793 49.1875 124.6875 C43.61002166 134.25509955 38.01083524 143.80989351 32.40756226 153.36239624 C27.59418056 161.56862537 22.79025174 169.78023777 18 178 C12.48470483 187.46388987 6.94890306 196.91560386 1.40673828 206.36376953 C-3.97156094 215.53313143 -9.33585972 224.71051116 -14.68701172 233.89575195 C-17.85769072 239.33566014 -21.03691566 244.77041848 -24.2265625 250.19921875 C-31.17485185 262.02713768 -38.09893942 273.86510649 -44.88183594 285.7890625 C-49.15997952 293.30335227 -53.52455442 300.76428889 -57.93652344 308.20068359 C-58.92632706 309.87535134 -59.90502564 311.55656899 -60.8828125 313.23828125 C-61.68332031 314.60533203 -61.68332031 314.60533203 -62.5 316 C-63.16515625 317.1446875 -63.16515625 317.1446875 -63.84375 318.3125 C-65 320 -65 320 -67 321 C-67.43642822 320.25242432 -67.87285645 319.50484863 -68.32250977 318.73461914 C-80.67648728 297.58519063 -93.17364703 276.53050183 -105.9375 255.625 C-113.00542416 244.04510567 -119.9159611 232.37371562 -126.81689453 220.69384766 C-141.01399529 196.65413256 -141.01399529 196.65413256 -155.4375 172.75 C-155.99590576 171.83379883 -156.55431152 170.91759766 -157.12963867 169.97363281 C-159.29561074 166.42227107 -161.46296362 162.87188686 -163.64453125 159.33007812 C-177.87395847 136.21999407 -188.69893085 114.03293131 -188.4375 86.25 C-188.43412628 85.55034119 -188.43075256 84.85068237 -188.42727661 84.12982178 C-188.34984697 73.01573935 -187.55806246 62.5904384 -184 52 C-183.75862305 51.26185059 -183.51724609 50.52370117 -183.26855469 49.76318359 C-174.54731541 23.76950249 -157.47766666 1.35959612 -134 -13 C-133.14631836 -13.52352051 -133.14631836 -13.52352051 -132.27539062 -14.05761719 C-90.15108234 -39.42103255 -36.29238821 -32.00977659 0 0 Z " fill="#FCFCFD" transform="translate(403,411)"/>
<path d="M0 0 C12.92256177 10.08199866 22.41627241 23.44937085 24.5234375 39.96875 C25.65476006 58.71099374 22.84148585 75.90079743 10.0234375 90.46875 C8.5434016 91.98845186 7.0452126 93.49084589 5.5234375 94.96875 C4.71326172 95.80986328 4.71326172 95.80986328 3.88671875 96.66796875 C-9.23118565 109.25719186 -26.50573925 111.47211098 -43.75 111.2421875 C-58.62424556 110.75363504 -71.45266539 103.60287621 -82.15625 93.484375 C-95.3479908 79.1822183 -99.13159727 63.26608866 -98.7890625 44.40625 C-98.09000576 27.46577494 -89.19776379 14.05807321 -77.1328125 2.77734375 C-55.03742199 -16.12569326 -23.48547384 -16.08014425 0 0 Z " fill="#FCFCFC" transform="translate(1002.4765625,782.03125)"/>
<path d="M0 0 C-6.01720431 4.01146954 -13.01499357 3.02049092 -19.9375 2.5625 C-20.81212891 2.51029297 -21.68675781 2.45808594 -22.58789062 2.40429688 C-24.72564632 2.2757979 -26.86288669 2.13877359 -29 2 C-29 1.67 -29 1.34 -29 1 C-27.69804687 0.93941406 -26.39609375 0.87882813 -25.0546875 0.81640625 C-23.32811601 0.73195438 -21.601554 0.64730874 -19.875 0.5625 C-19.0190625 0.52318359 -18.163125 0.48386719 -17.28125 0.44335938 C-1.06196905 -0.36760467 -1.06196905 -0.36760467 0 0 Z " fill="#437973" transform="translate(493,897)"/>
<path d="M0 0 C-0.66 0 -1.32 0 -2 0 C-2 0.66 -2 1.32 -2 2 C-8.93 1.67 -15.86 1.34 -23 1 C-23 0.67 -23 0.34 -23 0 C-19.91722144 -0.1974877 -16.8337715 -0.38123332 -13.75 -0.5625 C-12.87730469 -0.61857422 -12.00460937 -0.67464844 -11.10546875 -0.73242188 C-10.26113281 -0.78076172 -9.41679688 -0.82910156 -8.546875 -0.87890625 C-7.77182617 -0.9260376 -6.99677734 -0.97316895 -6.19824219 -1.02172852 C-3.96887415 -0.99969234 -2.13101433 -0.6303897 0 0 Z " fill="#5F8A87" transform="translate(980,893)"/>
<path d="M0 0 C-1.44781793 3.44428265 -3.27694609 5.36130962 -6.125 7.75 C-7.21167969 8.67039062 -7.21167969 8.67039062 -8.3203125 9.609375 C-8.87460937 10.06828125 -9.42890625 10.5271875 -10 11 C-10.66 10.67 -11.32 10.34 -12 10 C-10.38113585 8.32737283 -8.7547271 6.66204463 -7.125 5 C-6.22007812 4.071875 -5.31515625 3.14375 -4.3828125 2.1875 C-2 0 -2 0 0 0 Z " fill="#E8EFEF" transform="translate(928,784)"/>
<path d="M0 0 C3.29148243 1.13499394 3.9959869 1.99283376 5.75 5.125 C6.1625 6.07375 6.575 7.0225 7 8 C6.01 8 5.02 8 4 8 C0 2.74285714 0 2.74285714 0 0 Z " fill="#1F5B56" transform="translate(668,850)"/>
<path d="M0 0 C0.99 0.99 1.98 1.98 3 3 C2.75546876 6.34192692 2.39456443 7.60543557 0 10 C0 6.7 0 3.4 0 0 Z " fill="#E5ECEB" transform="translate(471,492)"/>
<path d="M0 0 C1.2077558 3.62326739 0.54311128 4.64146369 -1 8 C-1.66 8 -2.32 8 -3 8 C-3 8.66 -3 9.32 -3 10 C-3.66 9.67 -4.32 9.34 -5 9 C-3.35 6.03 -1.7 3.06 0 0 Z " fill="#DCE7E6" transform="translate(760,590)"/>
<path d="M0 0 C2.56616632 3.84924948 2.55097676 6.4349304 3 11 C2.67 10.34 2.34 9.68 2 9 C1.01 8.67 0.02 8.34 -1 8 C-0.7525 7.13375 -0.7525 7.13375 -0.5 6.25 C0.14462031 3.73335631 0.14462031 3.73335631 0 0 Z " fill="#B9CBC9" transform="translate(754,450)"/>
<path d="M0 0 C1 3 1 3 0.22265625 4.82421875 C-0.8515625 6.54947917 -1.92578125 8.27473958 -3 10 C-3.75 8.375 -3.75 8.375 -4 6 C-2.0625 2.75 -2.0625 2.75 0 0 Z " fill="#245F5A" transform="translate(566,432)"/>
<path d="M0 0 C0.99 0.33 1.98 0.66 3 1 C2.67 2.65 2.34 4.3 2 6 C0.68 6.33 -0.64 6.66 -2 7 C-1.34 4.69 -0.68 2.38 0 0 Z " fill="#407774" transform="translate(752,515)"/>
<path d="M0 0 C0.66 0 1.32 0 2 0 C2.93065133 2.60582371 3.14917407 3.64198224 2.0625 6.25 C1.5365625 7.11625 1.5365625 7.11625 1 8 C0.34 8 -0.32 8 -1 8 C-0.67 5.36 -0.34 2.72 0 0 Z " fill="#255E59" transform="translate(756,501)"/>
<path d="M0 0 C2.64 0.33 5.28 0.66 8 1 C8 1.66 8 2.32 8 3 C5.36 2.67 2.72 2.34 0 2 C0 1.34 0 0.68 0 0 Z " fill="#326463" transform="translate(676,381)"/>
</svg>
